<svg xmlns="http://www.w3.org/2000/svg" viewBox="0 0 624 473" width="624" height="473">
	<defs>
		<clipPath clipPathUnits="userSpaceOnUse" id="cp1">
			<path d="M-726 -175L714 -175L714 8029L-726 8029Z" />
		</clipPath>
		<linearGradient id="grd1" gradientUnits="userSpaceOnUse"  x1="234.928" y1="196.454" x2="303.391" y2="25.313">
			<stop offset="0" stop-color="#1c75bc"  />
			<stop offset="0.28" stop-color="#2077bc"  />
			<stop offset="0.54" stop-color="#2b7ebc"  />
			<stop offset="0.8" stop-color="#3e88bc"  />
			<stop offset="1" stop-color="#5394bc"  />
		</linearGradient>
	</defs>
	<style>
		tspan { white-space:pre }
		.shp0 { fill: #933e31 } 
		.shp1 { fill: #1c75bc } 
		.shp2 { fill: #9d4d36 } 
		.shp3 { fill: #bbcee1 } 
		.shp4 { fill: #ffffff } 
		.shp5 { fill: #a7bcce } 
		.shp6 { fill: #2a87c6 } 
		.shp7 { fill: #e8ebf5 } 
		.shp8 { fill: #0f4463 } 
		.shp9 { fill: #0b3b56 } 
		.shp10 { fill: #1f5e77 } 
		.shp11 { fill: #07304b } 
		.shp12 { fill: url(#grd1) } 
		.shp13 { fill: #fed4bd } 
		.shp14 { fill: #f4c5a2 } 
		.shp15 { fill: #bdcefa } 
		.shp16 { fill: #9cb8fe } 
		.shp17 { fill: #91a6b7 } 
		.shp18 { fill: #ef4136 } 
		.shp19 { fill: #f5d012 } 
		.shp20 { fill: #edf0f8 } 
		.shp21 { fill: #50e85e } 
		.shp22 { fill: #ed5561 } 
		.shp23 { fill: #f0cec9 } 
		.shp24 { fill: #fffbf0 } 
		.shp25 { fill: #f5ddd8 } 
		.shp26 { fill: #dfbab8 } 
		.shp27 { fill: #ec652b } 
		.shp28 { fill: #1791f2 } 
		.shp29 { fill: #a11d20 } 
		.shp30 { fill: #35a6ff } 
		.shp31 { fill: #db5c5f } 
		.shp32 { fill: #ce3a3d } 
	</style>
	<g id="AngularJs to Angular" clip-path="url(#cp1)">
		<g id="Bird In Hand Full">
			<g id="Group 43">
				<g id="usa-mapРесурс 1">
					<path id="Path" class="shp0" d="M167.62 390.97C157.27 390.97 160.66 383.22 160.66 383.22C145.33 378.52 137.77 381.12 137.77 381.15C135.49 389.27 134.67 397.73 135.34 406.13C135.34 407.75 136.46 408.73 137.97 409.29C146.36 412.37 153.75 414.41 169.11 412.9C180.3 411.81 192.41 401.32 189.7 390.52C187.99 383.86 178.11 390.89 167.62 390.97Z" />
					<path id="Path" class="shp1" d="M163.18 293.73C160.15 289.78 154.95 286.43 146.39 288.69L53.93 306.6L57.4 330.35C66.89 341.67 82.23 346.23 96.37 341.93C110.9 337.88 124.7 331.59 137.27 323.27L134.14 388.82C143.37 391.32 153.21 390.13 161.58 385.51C163.74 384.2 165.75 321 166.42 304.78C166.87 300.81 165.7 296.83 163.18 293.73Z" />
					<path id="Path" class="shp2" d="M212.02 409.94C201.28 409.94 204.8 401.88 204.8 401.88C188.86 397.01 181.02 399.73 181.02 399.73C178.65 408.16 177.79 416.95 178.48 425.69C178.48 427.36 179.65 428.48 181.28 428.96C189.86 432.15 197.67 434.27 213.62 432.71C225.36 431.56 237.81 420.68 234.99 409.52C233.17 402.58 222.9 409.82 212.02 409.94Z" />
					<path id="Path" class="shp3" d="M106.89 383.86L27.5 337.96L27.5 349.15L106.92 394.91L106.89 383.86L106.89 383.86Z" />
					<path id="Path" class="shp4" d="M99.67 296.5L27.5 337.96L106.89 383.86L179.15 342.35L99.67 296.5L99.67 296.5Z" />
					<path id="Path" class="shp5" d="M179.15 342.35L106.89 383.86L106.92 394.91L179.15 353.12L179.15 342.35L179.15 342.35Z" />
					<path id="Path" class="shp6" d="M207.4 308.95C204.27 304.86 199.01 301.37 189.92 303.74L93.88 322.26L97.49 346.94C107.33 358.66 123.21 363.39 137.86 358.97C152.94 354.77 167.27 348.22 180.32 339.58L177.08 407.64C186.66 410.24 196.87 409 205.56 404.2C207.82 402.86 209.92 337.23 210.59 320.28C211.08 316.23 209.93 312.15 207.4 308.95Z" />
					<path id="Path" class="shp7" d="M35.81 170.02L199.8 74.91C206.72 70.91 215.25 70.91 222.18 74.91L480.5 224.35C483.56 226.11 485.45 229.38 485.45 232.91C485.45 236.44 483.56 239.71 480.5 241.47L320.28 334.57C312.02 339.34 301.83 339.34 293.57 334.57L35.83 185.46C33.05 183.9 31.32 180.95 31.31 177.75C31.31 174.55 33.02 171.6 35.81 170.02Z" />
					<path id="Path" class="shp5" d="M35.83 185.38L293.57 334.57C301.83 339.34 312.02 339.34 320.28 334.57L480.61 241.5C483.67 239.75 485.55 236.49 485.53 232.97L485.53 245.47L485.53 245.47C485.51 248.94 483.64 252.13 480.64 253.86L320.31 346.94C312.05 351.72 301.86 351.72 293.6 346.94L35.86 197.83C33.09 196.25 31.38 193.3 31.41 190.11L31.41 190.11L31.41 177.86C31.45 180.97 33.13 183.83 35.83 185.38Z" />
					<path id="Path" class="shp3" d="M35.83 185.38L293.57 334.57C297.29 336.7 301.48 337.9 305.76 338.07L305.76 350.41C301.48 350.25 297.29 349.05 293.57 346.91L35.83 197.8C33.06 196.23 31.36 193.27 31.39 190.08L31.39 190.08L31.39 177.83C31.42 180.96 33.11 183.84 35.83 185.38Z" />
					<path id="Path" class="shp8" d="M156.97 204.46L184.94 188.35C186.25 187.59 187.86 187.59 189.16 188.35L274.94 238.06C275.5 238.4 275.85 239.01 275.85 239.67C275.85 240.33 275.5 240.94 274.94 241.27L247.77 257C246.22 257.89 244.31 257.89 242.77 257L156.97 207.34C156.46 207.04 156.15 206.49 156.15 205.9C156.15 205.31 156.46 204.76 156.97 204.46Z" />
					<path id="Path" class="shp9" d="M156.97 207.34L242.82 257C244.37 257.89 246.28 257.89 247.83 257L274.94 241.27C275.51 240.95 275.86 240.34 275.86 239.68L275.86 242.95L275.86 242.95C275.84 243.6 275.49 244.19 274.94 244.52L247.77 260.24C246.22 261.14 244.31 261.14 242.77 260.24L156.97 210.64C156.43 210.36 156.12 209.79 156.15 209.19L156.15 209.19L156.15 205.89C156.14 206.48 156.45 207.04 156.97 207.34Z" />
					<path id="Path" class="shp10" d="M184.49 192.88L187.96 190.86L191.93 193.13L188.47 195.14L184.49 192.88L184.49 192.88Z" />
					<path id="Path" class="shp10" d="M189.42 195.73L192.91 193.69L196.86 195.98L193.39 198L189.42 195.73L189.42 195.73Z" />
					<path id="Path" class="shp10" d="M194.37 198.56L197.84 196.54L201.81 198.84L198.34 200.85L194.37 198.56L194.37 198.56Z" />
					<path id="Path" class="shp10" d="M199.29 201.41L202.79 199.4L206.76 201.66L203.26 203.68L199.29 201.41L199.29 201.41Z" />
					<path id="Path" class="shp10" d="M204.24 204.26L207.74 202.22L211.68 204.52L208.22 206.53L204.24 204.26L204.24 204.26Z" />
					<path id="Path" class="shp10" d="M209.19 207.09L212.66 205.08L216.64 207.37L213.17 209.38L209.19 207.09L209.19 207.09Z" />
					<path id="Path" class="shp10" d="M214.12 209.94L217.62 207.93L221.56 210.19L218.09 212.21L214.12 209.94L214.12 209.94Z" />
					<path id="Path" class="shp10" d="M219.07 212.8L222.54 210.75L226.51 213.05L223.04 215.06L219.07 212.8L219.07 212.8Z" />
					<path id="Path" class="shp10" d="M223.99 215.62L227.49 213.61L231.44 215.9L227.97 217.92L223.99 215.62L223.99 215.62Z" />
					<path id="Path" class="shp10" d="M228.95 218.48L232.44 216.46L236.39 218.73L232.92 220.74L228.95 218.48L228.95 218.48Z" />
					<path id="Path" class="shp10" d="M233.9 221.3L237.37 219.29L241.34 221.58L237.87 223.59L233.9 221.3L233.9 221.3Z" />
					<path id="Path" class="shp10" d="M238.82 224.15L242.32 222.14L246.26 224.43L242.79 226.42L238.82 224.15L238.82 224.15Z" />
					<path id="Path" class="shp10" d="M247.24 224.97L251.21 227.26L247.74 229.27L243.77 227.01L247.24 224.97L247.24 224.97Z" />
					<path id="Path" class="shp10" d="M183.93 197.77L179.99 195.48L183.46 193.47L187.43 195.76L183.93 197.77L183.93 197.77Z" />
					<path id="Path" class="shp10" d="M192.35 198.59L188.89 200.6L184.91 198.33L188.41 196.32L192.35 198.59L192.35 198.59Z" />
					<path id="Path" class="shp10" d="M197.31 201.44L193.84 203.45L189.86 201.19L193.33 199.14L197.31 201.44L197.31 201.44Z" />
					<path id="Path" class="shp10" d="M202.23 204.29L198.76 206.31L194.79 204.01L198.28 202L202.23 204.29L202.23 204.29Z" />
					<path id="Path" class="shp10" d="M207.18 207.12L203.71 209.13L199.74 206.87L203.21 204.85L207.18 207.12L207.18 207.12Z" />
					<path id="Path" class="shp10" d="M212.13 209.97L208.64 211.98L204.66 209.72L208.16 207.68L212.13 209.97L212.13 209.97Z" />
					<path id="Path" class="shp10" d="M217.06 212.82L213.59 214.84L209.61 212.54L213.11 210.53L217.06 212.82L217.06 212.82Z" />
					<path id="Path" class="shp10" d="M222.01 215.65L218.54 217.66L214.57 215.4L218.04 213.38L222.01 215.65L222.01 215.65Z" />
					<path id="Path" class="shp10" d="M226.93 218.5L223.46 220.52L219.49 218.25L222.99 216.21L226.93 218.5L226.93 218.5Z" />
					<path id="Path" class="shp10" d="M231.88 221.36L228.41 223.37L224.44 221.08L227.91 219.06L231.88 221.36L231.88 221.36Z" />
					<path id="Path" class="shp10" d="M236.83 224.18L233.34 226.2L229.36 223.93L232.86 221.92L236.83 224.18L236.83 224.18Z" />
					<path id="Path" class="shp10" d="M241.76 227.04L238.29 229.05L234.32 226.78L237.79 224.74L241.76 227.04L241.76 227.04Z" />
					<path id="Path" class="shp10" d="M242.74 227.6L246.71 229.86L243.24 231.9L239.27 229.61L242.74 227.6L242.74 227.6Z" />
					<path id="Path" class="shp10" d="M179.43 200.38L175.46 198.11L178.95 196.1L182.9 198.36L179.43 200.38L179.43 200.38Z" />
					<path id="Path" class="shp10" d="M187.85 201.21L184.38 203.23L180.41 200.94L183.88 198.92L187.85 201.21L187.85 201.21Z" />
					<path id="Path" class="shp10" d="M185.33 203.79L188.83 201.77L192.8 204.04L189.3 206.05L185.33 203.79L185.33 203.79Z" />
					<path id="Path" class="shp10" d="M197.73 206.89L194.26 208.91L190.28 206.64L193.78 204.6L197.73 206.89L197.73 206.89Z" />
					<path id="Path" class="shp10" d="M202.68 209.75L199.21 211.76L195.24 209.47L198.7 207.45L202.68 209.75L202.68 209.75Z" />
					<path id="Path" class="shp10" d="M207.6 212.57L204.13 214.59L200.16 212.32L203.66 210.31L207.6 212.57L207.6 212.57Z" />
					<path id="Path" class="shp10" d="M212.55 215.43L209.08 217.44L205.11 215.17L208.58 213.13L212.55 215.43L212.55 215.43Z" />
					<path id="Path" class="shp10" d="M217.5 218.28L214.01 220.29L210.03 218L213.53 215.99L217.5 218.28L217.5 218.28Z" />
					<path id="Path" class="shp10" d="M222.43 221.1L218.96 223.12L214.99 220.85L218.48 218.84L222.43 221.1L222.43 221.1Z" />
					<path id="Path" class="shp10" d="M227.38 223.96L223.91 225.97L219.94 223.71L223.41 221.66L227.38 223.96L227.38 223.96Z" />
					<path id="Path" class="shp10" d="M232.3 226.81L228.83 228.83L224.86 226.53L228.36 224.52L232.3 226.81L232.3 226.81Z" />
					<path id="Path" class="shp10" d="M229.81 229.39L233.28 227.37L237.25 229.64L233.79 231.65L229.81 229.39L229.81 229.39Z" />
					<path id="Path" class="shp10" d="M238.23 230.2L242.21 232.49L238.71 234.5L234.74 232.21L238.23 230.2L238.23 230.2Z" />
					<path id="Path" class="shp10" d="M174.93 203.01L170.95 200.71L174.45 198.7L178.39 200.99L174.93 203.01L174.93 203.01Z" />
					<path id="Path" class="shp10" d="M175.9 203.56L179.37 201.52L183.35 203.82L179.88 205.83L175.9 203.56L175.9 203.56Z" />
					<path id="Path" class="shp10" d="M180.83 206.39L184.33 204.38L188.27 206.67L184.8 208.68L180.83 206.39L180.83 206.39Z" />
					<path id="Path" class="shp10" d="M185.78 209.24L189.28 207.23L193.22 209.5L189.75 211.51L185.78 209.24L185.78 209.24Z" />
					<path id="Path" class="shp10" d="M190.7 212.1L194.2 210.05L198.17 212.35L194.68 214.36L190.7 212.1L190.7 212.1Z" />
					<path id="Path" class="shp10" d="M195.66 214.92L199.15 212.91L203.1 215.2L199.63 217.22L195.66 214.92L195.66 214.92Z" />
					<path id="Path" class="shp10" d="M200.61 217.78L204.08 215.76L208.05 218.03L204.58 220.04L200.61 217.78L200.61 217.78Z" />
					<path id="Path" class="shp10" d="M205.53 220.63L209.03 218.59L212.97 220.88L209.5 222.9L205.53 220.63L205.53 220.63Z" />
					<path id="Path" class="shp10" d="M210.48 223.45L213.95 221.44L217.92 223.73L214.45 225.75L210.48 223.45L210.48 223.45Z" />
					<path id="Path" class="shp10" d="M215.41 226.31L218.9 224.29L222.87 226.56L219.38 228.57L215.41 226.31L215.41 226.31Z" />
					<path id="Path" class="shp10" d="M220.36 229.16L223.85 227.12L227.8 229.41L224.33 231.43L220.36 229.16L220.36 229.16Z" />
					<path id="Path" class="shp10" d="M225.31 231.99L228.78 229.97L232.75 232.27L229.28 234.28L225.31 231.99L225.31 231.99Z" />
					<path id="Path" class="shp10" d="M233.73 232.83L237.67 235.09L234.2 237.11L230.23 234.84L233.73 232.83L233.73 232.83Z" />
					<path id="Path" class="shp10" d="M170.42 205.61L166.45 203.34L169.95 201.3L173.89 203.59L170.42 205.61L170.42 205.61Z" />
					<path id="Path" class="shp10" d="M171.37 206.17L174.87 204.15L178.84 206.42L175.37 208.43L171.37 206.17L171.37 206.17Z" />
					<path id="Path" class="shp10" d="M176.32 209.02L179.82 207.01L183.77 209.27L180.3 211.29L176.32 209.02L176.32 209.02Z" />
					<path id="Path" class="shp10" d="M181.28 211.85L184.74 209.83L188.72 212.12L185.25 214.14L181.28 211.85L181.28 211.85Z" />
					<path id="Path" class="shp10" d="M186.2 214.7L189.7 212.68L193.64 214.98L190.17 216.99L186.2 214.7L186.2 214.7Z" />
					<path id="Path" class="shp10" d="M191.15 217.55L194.65 215.51L198.59 217.8L195.12 219.82L191.15 217.55L191.15 217.55Z" />
					<path id="Path" class="shp10" d="M196.07 220.38L199.57 218.36L203.54 220.66L200.05 222.67L196.07 220.38L196.07 220.38Z" />
					<path id="Path" class="shp10" d="M201.03 223.23L204.52 221.22L208.47 223.48L205 225.5L201.03 223.23L201.03 223.23Z" />
					<path id="Path" class="shp10" d="M205.98 226.08L209.45 224.04L213.42 226.34L209.95 228.35L205.98 226.08L205.98 226.08Z" />
					<path id="Path" class="shp10" d="M210.9 228.91L214.4 226.9L218.34 229.19L214.87 231.2L210.9 228.91L210.9 228.91Z" />
					<path id="Path" class="shp10" d="M215.85 231.76L219.32 229.75L223.29 232.02L219.83 234.03L215.85 231.76L215.85 231.76Z" />
					<path id="Path" class="shp10" d="M220.78 234.62L224.27 232.57L228.25 234.87L224.75 236.88L220.78 234.62L220.78 234.62Z" />
					<path id="Path" class="shp10" d="M229.23 235.43L233.17 237.72L229.7 239.74L225.73 237.44L229.23 235.43L229.23 235.43Z" />
					<path id="Path" class="shp10" d="M165.41 203.93L169.39 206.19L165.92 208.21L161.95 205.94L165.41 203.93L165.41 203.93Z" />
					<path id="Path" class="shp10" d="M174.31 209.05L170.84 211.06L166.87 208.77L170.37 206.75L174.31 209.05L174.31 209.05Z" />
					<path id="Path" class="shp10" d="M179.26 211.9L175.79 213.92L171.82 211.62L175.29 209.61L179.26 211.9L179.26 211.9Z" />
					<path id="Path" class="shp10" d="M184.21 214.73L180.74 216.74L176.77 214.47L180.24 212.43L184.21 214.73L184.21 214.73Z" />
					<path id="Path" class="shp10" d="M189.14 217.58L185.67 219.59L181.7 217.3L185.19 215.29L189.14 217.58L189.14 217.58Z" />
					<path id="Path" class="shp10" d="M194.09 220.41L190.62 222.42L186.65 220.15L190.12 218.14L194.09 220.41L194.09 220.41Z" />
					<path id="Path" class="shp10" d="M195.07 220.99L199.99 223.82L200.02 223.82L200.97 224.38L204.94 226.67L204.94 226.67L206.96 227.82L209.89 229.5L209.89 229.5L213 231.32L218.79 234.65L215.32 236.66L209.28 233.16L206.4 231.54L206.4 231.54L203.4 229.8L201.45 228.69L201.47 228.69L197.56 226.45L196.52 225.83L196.52 225.83L191.57 223.01L195.07 220.99L195.07 220.99Z" />
					<path id="Path" class="shp10" d="M223.71 237.47L220.25 239.48L216.27 237.22L219.77 235.2L223.71 237.47L223.71 237.47Z" />
					<path id="Path" class="shp10" d="M228.67 240.32L225.2 242.34L221.22 240.07L224.69 238.03L228.67 240.32L228.67 240.32Z" />
					<path id="Path" class="shp10" d="M253.65 232.69L257.12 230.67L261.09 232.94L257.62 234.95L253.65 232.69L253.65 232.69Z" />
					<path id="Path" class="shp10" d="M258.6 235.54L262.07 233.5L266.04 235.79L262.54 237.81L258.6 235.54L258.6 235.54Z" />
					<path id="Path" class="shp10" d="M263.52 238.37L267.02 236.35L270.96 238.65L267.49 240.66L263.52 238.37L263.52 238.37Z" />
					<path id="Path" class="shp10" d="M256.58 235.57L253.12 237.58L249.14 235.29L252.61 233.27L256.58 235.57L256.58 235.57Z" />
					<path id="Path" class="shp10" d="M261.51 238.39L258.04 240.41L254.07 238.14L257.56 236.13L261.51 238.39L261.51 238.39Z" />
					<path id="Path" class="shp10" d="M266.46 241.25L262.99 243.26L259.02 241L262.49 238.95L266.46 241.25L266.46 241.25Z" />
					<path id="Path" class="shp10" d="M252.08 238.17L248.58 240.18L244.64 237.92L248.11 235.88L252.08 238.17L252.08 238.17Z" />
					<path id="Path" class="shp10" d="M257 241.02L253.54 243.04L249.56 240.74L253.06 238.73L257 241.02L257 241.02Z" />
					<path id="Path" class="shp10" d="M261.96 243.85L258.49 245.86L254.51 243.6L257.98 241.58L261.96 243.85L261.96 243.85Z" />
					<path id="Path" class="shp10" d="M240.11 240.52L243.6 238.51L247.58 240.77L244.08 242.79L240.11 240.52L240.11 240.52Z" />
					<path id="Path" class="shp10" d="M245.06 243.37L248.53 241.33L252.5 243.63L249.03 245.64L245.06 243.37L245.06 243.37Z" />
					<path id="Path" class="shp10" d="M249.98 246.2L253.48 244.18L257.45 246.48L253.96 248.49L249.98 246.2L249.98 246.2Z" />
					<path id="Path" class="shp10" d="M235.6 243.12L239.1 241.11L243.04 243.4L239.58 245.42L235.6 243.12L235.6 243.12Z" />
					<path id="Path" class="shp10" d="M240.56 245.97L244.02 243.96L248 246.23L244.53 248.24L240.56 245.97L240.56 245.97Z" />
					<path id="Path" class="shp10" d="M245.48 248.83L248.98 246.79L252.95 249.08L249.45 251.09L245.48 248.83L245.48 248.83Z" />
					<path id="Path" class="shp10" d="M238.54 246L235.07 248.02L231.1 245.75L234.6 243.74L238.54 246L238.54 246Z" />
					<path id="Path" class="shp10" d="M243.49 248.86L240.02 250.87L236.05 248.58L239.52 246.56L243.49 248.86L243.49 248.86Z" />
					<path id="Path" class="shp10" d="M218.71 177.74L246.09 161.85C247.25 161.18 248.68 161.18 249.84 161.85L314.8 199.34C315.28 199.64 315.58 200.17 315.58 200.74C315.58 201.31 315.28 201.84 314.8 202.14L288.03 217.69C286.65 218.47 284.96 218.47 283.58 217.69L218.71 180.32C218.25 180.05 217.96 179.56 217.96 179.03C217.96 178.5 218.25 178.01 218.71 177.74L218.71 177.74Z" />
					<path id="Path" class="shp11" d="M218.71 180.32L283.58 217.75C284.96 218.53 286.65 218.53 288.03 217.75L314.8 202.19C315.31 201.9 315.61 201.35 315.61 200.77L315.61 204.1L315.61 204.1C315.61 204.67 315.3 205.19 314.8 205.47L288.03 221.02C286.66 221.83 284.95 221.83 283.58 221.02L218.71 183.65C218.25 183.38 217.98 182.89 217.98 182.36L217.98 182.36L217.98 179.03C217.98 179.56 218.25 180.05 218.71 180.32Z" />
					<path id="Path" class="shp9" d="M218.71 180.32L283.58 217.75C284.19 218.11 284.89 218.31 285.59 218.34L285.59 221.66C284.89 221.64 284.19 221.44 283.58 221.08L218.71 183.65C218.25 183.38 217.98 182.89 217.98 182.36L217.98 182.36L217.98 179.03C217.98 179.56 218.25 180.05 218.71 180.32Z" />
					<path id="Path" class="shp8" d="M289.74 180.26L239.27 151.03L239.27 176.04L289.74 205.24L289.74 180.26L289.74 180.26Z" />
					<path id="Path" class="shp11" d="M246.29 147L239.27 151.03L289.74 180.26L296.78 176.21L246.29 147L246.29 147Z" />
					<path id="Path" class="shp11" d="M296.78 176.21L289.74 180.26L289.74 205.24L296.78 201.16L296.78 176.21L296.78 176.21Z" />
					<path id="Path" class="shp12" d="M188.21 23.74L341.68 112.76L341.68 225.66L188.21 136.31L188.21 23.74L188.21 23.74Z" />
					<path id="Path" class="shp11" d="M341.68 112.76L346.78 109.65L346.78 222.59L341.68 225.66L341.68 112.76L341.68 112.76Z" />
					<path id="Path" class="shp10" d="M188.21 23.74L193.45 20.72L346.78 109.65L341.68 112.76L188.21 23.74L188.21 23.74Z" />
					<path id="Shape" fill-rule="evenodd" class="shp9" d="M341.66 112.76L341.66 225.66L188.21 136.31L188.21 23.74L341.66 112.76ZM338.05 114.86L191.85 30.06L191.85 134.21L338.02 219.34L338.05 114.86Z" />
					<path id="Path" class="shp13" d="M131.4 163.17C129.83 179.28 117.91 191.31 104.82 190.02C91.73 188.74 82.44 174.61 84.03 158.5C85.63 142.38 97.52 130.33 110.58 131.61C123.65 132.9 132.99 147.14 131.4 163.17Z" />
					<path id="Path" class="shp14" d="M150.95 200.77C150.95 200.77 156.55 202.14 158.62 202.33C160.69 202.53 168.07 204.1 171.12 203.14C174.17 202.19 168.32 200.21 167.01 199.14C165.69 198.08 165.67 195.45 168.74 194.53C171.82 193.61 178.81 194.05 182.51 193.52C186.2 192.99 178.84 181.83 172.83 180.71C167.24 179.58 161.44 180.36 156.35 182.92C151.23 185.46 148.43 189.72 146.06 190.56L150.95 200.77Z" />
					<path id="Path" class="shp15" d="M151.62 185.52L112.68 195.28L110.72 219.99L156.66 204.26C157.64 195.51 151.62 185.52 151.62 185.52Z" />
					<path id="Path" class="shp15" d="M55.67 195.98C55.67 195.98 44.9 209.55 55.67 228.21C55.67 228.21 63.19 238.62 83.84 228.43L55.67 195.98Z" />
					<path id="Path" class="shp16" d="M87.5 180.15C87.5 180.15 104.29 179 117.41 188.21C118.16 190.04 119.43 191.62 121.07 192.74C123.7 194.47 136.77 199.7 136.77 199.7C136.77 199.7 131 276.3 137.61 313.56C137.61 313.56 109.27 335.72 64.87 313.56C64.87 313.56 58.41 219.54 55.56 196.07C55.67 195.98 63.05 186.86 87.5 180.15Z" />
					<path id="Path" class="shp3" d="M80.17 306.57L0.78 260.66L27.5 338.07L106.92 383.86L80.17 306.57L80.17 306.57Z" />
					<path id="Path" class="shp4" d="M9.54 255.57L0.78 260.66L80.17 306.57L89.04 301.42L9.54 255.57L9.54 255.57Z" />
					<path id="Path" class="shp5" d="M89.04 301.42L80.17 306.57L106.92 383.86L115.87 378.72L89.04 301.42L89.04 301.42Z" />
					<path id="Path" class="shp14" d="M203.26 234.67C203.26 234.67 207.6 230.31 209.25 229.08C210.9 227.85 216.75 222.34 219.99 221.61C223.24 220.88 217.7 226.53 217.03 228.29C216.36 230.06 220.36 226.9 223.41 225.75C226.81 224.62 230.5 224.74 233.81 226.11C241.34 228.91 240.97 243.82 234.82 242.03C224.72 239.23 220.19 247.12 214.15 248.83C211.39 249.53 208.58 250.06 205.75 250.39L203.26 234.67Z" />
					<path id="Path" class="shp15" d="M136.77 199.7L169.58 243.2L203.71 233.13C203.71 233.13 211.04 242.37 208.66 252.16L163.04 269.89L126.11 229.16C126.11 229.16 113.72 203.34 136.77 199.7Z" />
					<path id="Path" class="shp2" d="M118.47 117.85C118.47 117.85 120.99 123.89 108.9 125.54C96.82 127.19 81.91 133.15 77.96 145.94C75.45 154.1 78.38 162.72 82.47 169.97C83.85 172.44 85.45 174.78 87.25 176.96C93.37 178.08 99.68 176.99 105.07 173.88C109.19 170.84 112.49 166.82 114.67 162.19C114.67 162.19 121.86 165.18 124.09 159.2C125.75 154.8 130.95 153.6 133.77 151.31C133.77 151.31 150.08 124.76 118.47 117.85Z" />
					<path id="Path" class="shp3" d="M569.09 349.51L516.47 318.99L516.47 338.68L569.09 369.12L569.09 349.51L569.09 349.51Z" />
					<path id="Path" class="shp4" d="M570.86 287.74L516.47 318.99L569.09 349.51L623.53 318.23L570.86 287.74L570.86 287.74Z" />
					<path id="Path" class="shp5" d="M623.53 318.23L569.09 349.51L569.09 369.12L623.53 337.62L623.53 318.23L623.53 318.23Z" />
					<path id="Path" class="shp3" d="M569.09 317.34L516.47 286.79L516.47 306.48L569.09 336.92L569.09 317.34L569.09 317.34Z" />
					<path id="Path" class="shp4" d="M570.86 255.54L516.47 286.79L569.09 317.34L623.53 286.04L570.86 255.54L570.86 255.54Z" />
					<g id="usa-mapРесурс 3">
						<path id="Path" class="shp17" d="M556.35 285.53L547.73 273.74L549.48 272.67L569.48 277.52L566.55 279.3L553.08 275.77L559.28 283.75L556.35 285.53Z" />
						<path id="Path" class="shp17" d="M584.32 282.77L559.43 288.5L555.64 286.29L580.5 280.58L584.32 282.77Z" />
						<path id="Path" class="shp17" d="M573.26 291.55L586.22 295.22L580.5 287.25L583.41 285.53L591.24 297.35L589.53 298.39L570.47 293.27L573.26 291.55Z" />
					</g>
					<path id="Path" class="shp5" d="M623.53 286.04L569.09 317.34L569.09 336.92L623.53 305.42L623.53 286.04L623.53 286.04Z" />
					<path id="Path" class="shp3" d="M480.11 401.04L427.51 370.49L427.51 390.19L480.13 420.62L480.11 401.04L480.11 401.04Z" />
					<path id="Path" class="shp4" d="M481.9 339.24L427.51 370.49L480.11 401.04L534.57 369.74L481.9 339.24L481.9 339.24Z" />
					<path id="Path" class="shp5" d="M534.57 369.74L480.11 401.04L480.13 420.62L534.57 389.12L534.57 369.74L534.57 369.74Z" />
					<path id="Path" class="shp3" d="M480.11 368.84L427.51 338.32L427.51 357.99L480.13 388.45L480.11 368.84L480.11 368.84Z" />
					<path id="Path" class="shp4" d="M481.9 307.07L427.51 338.32L480.11 368.84L534.57 337.57L481.9 307.07L481.9 307.07Z" />
					<path id="Path" class="shp5" d="M534.57 337.57L480.11 368.84L480.13 388.45L534.57 356.95L534.57 337.57L534.57 337.57Z" />
					<path id="Path" class="shp3" d="M391.14 452.54L338.55 422.02L338.55 441.69L391.14 472.15L391.14 452.54L391.14 452.54Z" />
					<path id="Path" class="shp4" d="M392.94 390.77L338.55 422.02L391.14 452.54L445.61 421.27L392.94 390.77L392.94 390.77Z" />
					<path id="Path" class="shp5" d="M445.61 421.27L391.14 452.54L391.14 472.15L445.61 440.65L445.61 421.27L445.61 421.27Z" />
					<path id="Path" class="shp3" d="M391.14 420.34L338.55 389.82L338.55 409.52L391.14 439.95L391.14 420.34L391.14 420.34Z" />
					<path id="Path" class="shp4" d="M392.94 358.57L338.55 389.82L391.14 420.34L445.61 389.07L392.94 358.57L392.94 358.57Z" />
					<path id="Path" class="shp5" d="M445.61 389.07L391.14 420.34L391.14 439.95L445.61 408.45L445.61 389.07L445.61 389.07Z" />
					<path id="Shape" fill-rule="evenodd" class="shp1" d="M407.57 401.07L404.26 399.17C401.77 400.11 399.17 400.73 396.52 401.01L396.52 403.81L388.52 403.81L388.52 401.01C385.86 400.73 383.26 400.1 380.77 399.17L377.49 401.07L371.9 397.77L375.2 395.86C373.73 394.69 372.61 393.15 371.95 391.39L367.25 391.39L367.25 386.75L371.9 386.75C372.55 384.99 373.65 383.44 375.09 382.24L371.79 380.34L377.38 377.07L380.68 378.97C383.17 378.01 385.78 377.39 388.43 377.12L388.43 374.32L396.46 374.32L396.46 377.12C399.11 377.4 401.72 378.02 404.21 378.97L407.48 377.07L413.08 380.34L409.78 382.27C411.25 383.43 412.37 384.98 413.02 386.75L417.61 386.75L417.61 391.39L412.97 391.39C412.32 393.14 411.22 394.68 409.78 395.86L413.08 397.8L407.57 401.07ZM385.02 393.32C389.7 395.7 395.24 395.7 399.93 393.32C404.01 390.94 403.99 387.08 399.93 384.7C395.25 382.33 389.72 382.33 385.05 384.7C380.93 387.08 380.96 390.94 385.05 393.32L385.02 393.32Z" />
					<path id="Path" class="shp18" d="M485.9 324.05L491.02 334.96L496.13 345.9L477.25 342.96L458.37 340.05L472.13 332.05L485.9 324.05L485.9 324.05Z" />
					<path id="Path" class="shp19" d="M207.32 47.21L207.32 50.21L219.91 57.45L219.91 54.46L207.32 47.21L207.32 47.21Z" />
					<path id="Path" class="shp20" d="M207.32 52.67L207.32 55.66L219.91 62.93L219.91 59.94L207.32 52.67L207.32 52.67Z" />
					<path id="Path" class="shp20" d="M207.32 58.15L207.32 61.14L219.91 68.39L219.91 65.4L207.32 58.15L207.32 58.15Z" />
					<path id="Path" class="shp20" d="M302.27 121.37L302.27 118.38L224.61 73.59L224.61 76.59L302.27 121.37L302.27 121.37Z" />
					<path id="Path" class="shp20" d="M207.32 63.61L207.32 66.6L219.91 73.87L219.91 70.88L207.32 63.61L207.32 63.61Z" />
					<path id="Path" class="shp20" d="M207.32 69.09L207.32 72.08L219.91 79.33L219.91 76.33L207.32 69.09L207.32 69.09Z" />
					<path id="Path" class="shp21" d="M302.27 126.83L302.27 123.84L224.61 79.08L224.61 82.04L302.27 126.83L302.27 126.83Z" />
					<path id="Path" class="shp20" d="M207.32 85.48L207.32 88.48L219.91 95.75L219.91 92.76L207.32 85.48L207.32 85.48Z" />
					<path id="Path" class="shp19" d="M207.32 90.97L207.32 93.96L219.91 101.2L219.91 98.21L207.32 90.97L207.32 90.97Z" />
					<path id="Path" class="shp20" d="M207.32 112.84L207.32 115.84L219.91 123.11L219.91 120.09L207.32 112.84L207.32 112.84Z" />
					<path id="Path" class="shp20" d="M207.32 118.32L207.32 121.32L219.91 128.56L219.91 125.57L207.32 118.32L207.32 118.32Z" />
					<path id="Path" class="shp21" d="M273.59 156.54L224.61 128.28L224.61 131.28L273.59 159.53L273.59 156.54L273.59 156.54Z" />
					<path id="Path" class="shp20" d="M276.17 158.02L276.17 161.04L302.27 176.07L302.27 173.07L276.17 158.02L276.17 158.02Z" />
					<path id="Path" class="shp20" d="M249.23 137.01L224.61 122.83L224.61 125.82L249.23 140.01L249.23 137.01L249.23 137.01Z" />
					<path id="Path" class="shp20" d="M251.8 138.52L251.8 141.49L302.27 170.61L302.27 167.62L251.8 138.52L251.8 138.52Z" />
					<path id="Path" class="shp20" d="M295.61 147.36L295.61 150.36L302.27 154.19L302.27 151.2L295.61 147.36L295.61 147.36Z" />
					<path id="Path" class="shp22" d="M259.49 121.07L224.61 100.95L224.61 103.95L259.49 124.06L259.49 121.07L259.49 121.07Z" />
					<path id="Path" class="shp20" d="M245.2 69.06L224.61 57.17L224.61 60.16L245.2 72.05L245.2 69.06L245.2 69.06Z" />
					<path id="Path" class="shp20" d="M278.96 88.53L247.8 70.54L247.8 73.54L278.96 91.52L278.96 88.53L278.96 88.53Z" />
					<path id="Path" class="shp20" d="M260.78 83.52L238.85 70.85L238.85 73.84L260.78 86.52L260.78 83.52L260.78 83.52Z" />
					<path id="Path" class="shp22" d="M283.83 96.78L263.38 85.01L263.38 88L283.83 99.81L283.83 96.78L283.83 96.78Z" />
					<path id="Path" class="shp20" d="M286.41 98.29L286.41 101.29L302.27 110.44L302.27 107.44L286.41 98.29L286.41 98.29Z" />
					<path id="Path" class="shp22" d="M228.67 70.46L228.67 73.45L245.2 82.99L245.2 80L228.67 70.46L228.67 70.46Z" />
					<path id="Path" class="shp20" d="M295.78 109.18L247.8 81.48L247.8 84.47L295.78 112.17L295.78 109.18L295.78 109.18Z" />
					<path id="Path" class="shp20" d="M268.31 109.74L236.95 91.64L236.95 94.63L268.31 112.73L268.31 109.74L268.31 109.74Z" />
					<path id="Path" class="shp20" d="M295.78 125.57L270.88 111.22L270.88 114.21L295.78 128.56L295.78 125.57L295.78 125.57Z" />
					<path id="Path" class="shp20" d="M293.04 140.4L262.1 122.55L262.1 125.54L293.04 143.39L293.04 140.4L293.04 140.4Z" />
					<path id="Path" class="shp21" d="M276.17 136.14L276.17 139.14L293.04 148.87L293.04 145.88L276.17 136.14L276.17 136.14Z" />
					<path id="Path" class="shp20" d="M230.68 109.9L224.61 106.41L224.61 109.4L230.68 112.9L230.68 109.9L230.68 109.9Z" />
					<path id="Path" class="shp20" d="M242.07 116.48L242.07 119.47L273.59 137.66L273.59 134.66L242.07 116.48L242.07 116.48Z" />
					<path id="Path" class="shp20" d="M239.49 115L233.28 111.42L233.28 114.41L239.49 117.99L239.49 115L239.49 115Z" />
					<path id="Path" class="shp20" d="M267.77 136.76L233.28 116.87L233.28 119.86L267.77 139.75L267.77 136.76L267.77 136.76Z" />
					<path id="Path" class="shp20" d="M307.72 105.15L307.72 105.96L311.19 107.97L311.19 107.13L307.72 105.15L307.72 105.15Z" />
					<path id="Path" class="shp20" d="M307.72 106.66L307.72 107.47L311.19 109.48L311.19 108.65L307.72 106.66L307.72 106.66Z" />
					<path id="Path" class="shp20" d="M307.72 108.17L307.72 108.98L311.19 110.99L311.19 110.16L307.72 108.17L307.72 108.17Z" />
					<path id="Path" class="shp20" d="M333.88 125.57L333.88 124.76L312.48 112.42L312.48 113.23L333.88 125.57L333.88 125.57Z" />
					<path id="Path" class="shp20" d="M307.72 109.68L307.72 110.49L311.19 112.48L311.19 111.67L307.72 109.68L307.72 109.68Z" />
					<path id="Path" class="shp20" d="M307.72 111.16L307.72 112L311.19 113.99L311.19 113.18L307.72 111.16L307.72 111.16Z" />
					<path id="Path" class="shp20" d="M333.88 127.08L333.88 126.27L312.48 113.93L312.48 114.74L333.88 127.08L333.88 127.08Z" />
					<path id="Path" class="shp20" d="M307.72 115.7L307.72 116.53L311.19 118.52L311.19 117.71L307.72 115.7L307.72 115.7Z" />
					<path id="Path" class="shp20" d="M307.72 117.21L307.72 118.02L311.19 120.03L311.19 119.19L307.72 117.21L307.72 117.21Z" />
					<path id="Path" class="shp20" d="M307.72 123.22L307.72 124.06L311.19 126.07L311.19 125.23L307.72 123.22L307.72 123.22Z" />
					<path id="Path" class="shp20" d="M307.72 124.73L307.72 125.57L311.19 127.56L311.19 126.75L307.72 124.73L307.72 124.73Z" />
					<path id="Path" class="shp20" d="M325.99 135.28L312.48 127.5L312.48 128.31L325.99 136.09L325.99 135.28L325.99 135.28Z" />
					<path id="Path" class="shp20" d="M326.69 135.7L326.69 136.51L333.88 140.65L333.88 139.84L326.69 135.7L326.69 135.7Z" />
					<path id="Path" class="shp20" d="M319.28 129.91L312.48 125.99L312.48 126.8L319.28 130.72L319.28 129.91L319.28 129.91Z" />
					<path id="Path" class="shp20" d="M319.98 130.3L319.98 131.14L333.88 139.14L333.88 138.33L319.98 130.3L319.98 130.3Z" />
					<path id="Path" class="shp20" d="M332.06 132.76L332.06 133.57L333.88 134.63L333.88 133.79L332.06 132.76L332.06 132.76Z" />
					<path id="Path" class="shp20" d="M322.1 125.49L312.48 119.95L312.48 120.79L322.1 126.33L322.1 125.49L322.1 125.49Z" />
					<path id="Path" class="shp20" d="M318.16 111.16L312.48 107.89L312.48 108.73L318.16 112L318.16 111.16L318.16 111.16Z" />
					<path id="Path" class="shp20" d="M327.47 116.53L318.86 111.58L318.86 112.39L327.47 117.35L327.47 116.53L327.47 116.53Z" />
					<path id="Path" class="shp20" d="M322.44 115.16L316.4 111.67L316.4 112.48L322.44 115.97L322.44 115.16L322.44 115.16Z" />
					<path id="Path" class="shp20" d="M328.79 118.8L323.17 115.55L323.17 116.39L328.79 119.64L328.79 118.8L328.79 118.8Z" />
					<path id="Path" class="shp20" d="M329.52 119.22L329.52 120.06L333.88 122.58L333.88 121.74L329.52 119.22L329.52 119.22Z" />
					<path id="Path" class="shp20" d="M313.6 111.55L313.6 112.39L318.16 115L318.16 114.18L313.6 111.55L313.6 111.55Z" />
					<path id="Path" class="shp20" d="M332.09 122.21L318.86 114.6L318.86 115.42L332.09 123.05L332.09 122.21L332.09 122.21Z" />
					<path id="Path" class="shp20" d="M324.51 122.38L315.89 117.4L315.89 118.21L324.51 123.19L324.51 122.38L324.51 122.38Z" />
					<path id="Path" class="shp20" d="M332.09 126.75L325.24 122.8L325.24 123.61L332.09 127.56L332.09 126.75L332.09 126.75Z" />
					<path id="Path" class="shp20" d="M331.33 130.83L322.8 125.91L322.8 126.75L331.33 131.67L331.33 130.83L331.33 130.83Z" />
					<path id="Path" class="shp20" d="M326.69 129.65L326.69 130.49L331.33 133.15L331.33 132.34L326.69 129.65L326.69 129.65Z" />
					<path id="Path" class="shp20" d="M314.16 122.44L312.48 121.46L312.48 122.3L314.16 123.25L314.16 122.44L314.16 122.44Z" />
					<path id="Path" class="shp20" d="M317.29 124.23L317.29 125.07L325.99 130.07L325.99 129.24L317.29 124.23L317.29 124.23Z" />
					<path id="Path" class="shp20" d="M316.59 123.84L314.86 122.83L314.86 123.67L316.59 124.65L316.59 123.84L316.59 123.84Z" />
					<path id="Path" class="shp20" d="M324.37 129.82L314.86 124.34L314.86 125.18L324.37 130.66L324.37 129.82L324.37 129.82Z" />
					<path id="Path" class="shp20" d="M307.72 130.66L307.72 131.47L311.19 133.49L311.19 132.65L307.72 130.66L307.72 130.66Z" />
					<path id="Path" class="shp20" d="M307.72 132.14L307.72 132.98L311.19 135L311.19 134.16L307.72 132.14L307.72 132.14Z" />
					<path id="Path" class="shp20" d="M307.72 133.66L307.72 134.49L311.19 136.48L311.19 135.67L307.72 133.66L307.72 133.66Z" />
					<path id="Path" class="shp20" d="M333.88 151.08L333.88 150.27L312.48 137.94L312.48 138.75L333.88 151.08L333.88 151.08Z" />
					<path id="Path" class="shp20" d="M307.72 135.17L307.72 136L311.19 137.99L311.19 137.18L307.72 135.17L307.72 135.17Z" />
					<path id="Path" class="shp20" d="M307.72 136.68L307.72 137.52L311.19 139.5L311.19 138.69L307.72 136.68L307.72 136.68Z" />
					<path id="Path" class="shp20" d="M333.88 152.59L333.88 151.78L312.48 139.42L312.48 140.26L333.88 152.59L333.88 152.59Z" />
					<path id="Path" class="shp20" d="M307.72 141.21L307.72 142.02L311.19 144.03L311.19 143.19L307.72 141.21L307.72 141.21Z" />
					<path id="Path" class="shp20" d="M307.72 142.72L307.72 143.53L311.19 145.54L311.19 144.7L307.72 142.72L307.72 142.72Z" />
					<path id="Path" class="shp20" d="M307.72 148.73L307.72 149.57L311.19 151.56L311.19 150.75L307.72 148.73L307.72 148.73Z" />
					<path id="Path" class="shp20" d="M307.72 150.24L307.72 151.08L311.19 153.07L311.19 152.26L307.72 150.24L307.72 150.24Z" />
					<path id="Path" class="shp20" d="M325.99 160.79L312.48 152.99L312.48 153.82L325.99 161.6L325.99 160.79L325.99 160.79Z" />
					<path id="Path" class="shp20" d="M326.69 161.18L326.69 162.02L333.88 166.16L333.88 165.32L326.69 161.18L326.69 161.18Z" />
					<path id="Path" class="shp20" d="M319.28 155.39L312.48 151.5L312.48 152.31L319.28 156.23L319.28 155.39L319.28 155.39Z" />
					<path id="Path" class="shp20" d="M319.98 155.81L319.98 156.62L333.88 164.65L333.88 163.84L319.98 155.81L319.98 155.81Z" />
					<path id="Path" class="shp20" d="M332.06 158.25L332.06 159.08L333.88 160.12L333.88 159.31L332.06 158.25L332.06 158.25Z" />
					<path id="Path" class="shp20" d="M322.1 151L312.48 145.46L312.48 146.27L322.1 151.84L322.1 151L322.1 151Z" />
					<path id="Path" class="shp20" d="M318.16 136.68L312.48 133.4L312.48 134.21L318.16 137.49L318.16 136.68L318.16 136.68Z" />
					<path id="Path" class="shp20" d="M327.47 142.05L318.86 137.1L318.86 137.91L327.47 142.86L327.47 142.05L327.47 142.05Z" />
					<path id="Path" class="shp20" d="M322.44 140.65L316.4 137.18L316.4 137.99L322.44 141.49L322.44 140.65L322.44 140.65Z" />
					<path id="Path" class="shp20" d="M328.79 144.31L323.17 141.07L323.17 141.91L328.79 145.15L328.79 144.31L328.79 144.31Z" />
					<path id="Path" class="shp20" d="M329.52 144.73L329.52 145.54L333.88 148.06L333.88 147.25L329.52 144.73L329.52 144.73Z" />
					<path id="Path" class="shp20" d="M313.6 137.07L313.6 137.88L318.16 140.51L318.16 139.7L313.6 137.07L313.6 137.07Z" />
					<path id="Path" class="shp20" d="M332.09 147.73L318.86 140.09L318.86 140.93L332.09 148.54L332.09 147.73L332.09 147.73Z" />
					<path id="Path" class="shp20" d="M324.51 147.89L315.89 142.89L315.89 143.73L324.51 148.71L324.51 147.89L324.51 147.89Z" />
					<path id="Path" class="shp20" d="M332.09 152.26L325.24 148.29L325.24 149.12L332.09 153.07L332.09 152.26L332.09 152.26Z" />
					<path id="Path" class="shp20" d="M331.33 156.34L322.8 151.42L322.8 152.23L331.33 157.15L331.33 156.34L331.33 156.34Z" />
					<path id="Path" class="shp20" d="M326.69 155.17L326.69 155.98L331.33 158.66L331.33 157.85L326.69 155.17L326.69 155.17Z" />
					<path id="Path" class="shp20" d="M314.16 147.92L312.48 146.97L312.48 147.78L314.16 148.76L314.16 147.92L314.16 147.92Z" />
					<path id="Path" class="shp20" d="M317.29 149.74L317.29 150.55L325.99 155.59L325.99 154.75L317.29 149.74L317.29 149.74Z" />
					<path id="Path" class="shp20" d="M316.59 149.32L314.86 148.34L314.86 149.15L316.59 150.16L316.59 149.32L316.59 149.32Z" />
					<path id="Path" class="shp20" d="M324.37 155.34L314.86 149.85L314.86 150.66L324.37 156.15L324.37 155.34L324.37 155.34Z" />
					<path id="Path" class="shp20" d="M307.72 156.15L307.72 156.99L311.19 158.97L311.19 158.16L307.72 156.15L307.72 156.15Z" />
					<path id="Path" class="shp20" d="M307.72 157.66L307.72 158.5L311.19 160.48L311.19 159.67L307.72 157.66L307.72 157.66Z" />
					<path id="Path" class="shp20" d="M307.72 159.17L307.72 160.01L311.19 161.99L311.19 161.18L307.72 159.17L307.72 159.17Z" />
					<path id="Path" class="shp20" d="M333.88 176.6L333.88 175.76L312.48 163.42L312.48 164.26L333.88 176.6L333.88 176.6Z" />
					<path id="Path" class="shp20" d="M307.72 160.68L307.72 161.52L311.19 163.5L311.19 162.69L307.72 160.68L307.72 160.68Z" />
					<path id="Path" class="shp20" d="M307.72 162.19L307.72 163L311.19 165.01L311.19 164.18L307.72 162.19L307.72 162.19Z" />
					<path id="Path" class="shp20" d="M333.88 178.11L333.88 177.27L312.48 164.93L312.48 165.77L333.88 178.11L333.88 178.11Z" />
					<path id="Path" class="shp20" d="M307.72 166.72L307.72 167.53L311.19 169.52L311.19 168.71L307.72 166.72L307.72 166.72Z" />
					<path id="Path" class="shp20" d="M307.72 168.2L307.72 169.04L311.19 171.03L311.19 170.22L307.72 168.2L307.72 168.2Z" />
					<path id="Path" class="shp20" d="M307.72 174.25L307.72 175.06L311.19 177.07L311.19 176.23L307.72 174.25L307.72 174.25Z" />
					<path id="Path" class="shp20" d="M307.72 175.76L307.72 176.57L311.19 178.58L311.19 177.74L307.72 175.76L307.72 175.76Z" />
					<path id="Path" class="shp20" d="M325.99 186.28L312.48 178.5L312.48 179.34L325.99 187.12L325.99 186.28L325.99 186.28Z" />
					<path id="Path" class="shp20" d="M326.69 186.7L326.69 187.53L333.88 191.68L333.88 190.84L326.69 186.7L326.69 186.7Z" />
					<path id="Path" class="shp20" d="M319.28 180.9L312.48 176.99L312.48 177.83L319.28 181.74L319.28 180.9L319.28 180.9Z" />
					<path id="Path" class="shp20" d="M319.98 181.32L319.98 182.14L333.88 190.16L333.88 189.33L319.98 181.32L319.98 181.32Z" />
					<path id="Path" class="shp20" d="M332.06 183.76L332.06 184.57L333.88 185.63L333.88 184.82L332.06 183.76L332.06 183.76Z" />
					<path id="Path" class="shp20" d="M322.1 176.51L312.48 170.97L312.48 171.79L322.1 177.32L322.1 176.51L322.1 176.51Z" />
					<path id="Path" class="shp20" d="M318.16 162.19L312.48 158.92L312.48 159.73L318.16 163L318.16 162.19L318.16 162.19Z" />
					<path id="Path" class="shp20" d="M327.47 167.53L318.86 162.58L318.86 163.42L327.47 168.37L327.47 167.53L327.47 167.53Z" />
					<path id="Path" class="shp20" d="M322.44 166.16L316.4 162.67L316.4 163.5L322.44 166.97L322.44 166.16L322.44 166.16Z" />
					<path id="Path" class="shp20" d="M328.79 169.83L323.17 166.58L323.17 167.39L328.79 170.64L328.79 169.83L328.79 169.83Z" />
					<path id="Path" class="shp20" d="M329.52 170.22L329.52 171.06L333.88 173.58L333.88 172.76L329.52 170.22L329.52 170.22Z" />
					<path id="Path" class="shp20" d="M313.6 162.55L313.6 163.39L318.16 166.02L318.16 165.18L313.6 162.55L313.6 162.55Z" />
					<path id="Path" class="shp20" d="M332.09 173.24L318.86 165.6L318.86 166.41L332.09 174.05L332.09 173.24L332.09 173.24Z" />
					<path id="Path" class="shp20" d="M324.51 173.38L315.89 168.4L315.89 169.21L324.51 174.22L324.51 173.38L324.51 173.38Z" />
					<path id="Path" class="shp20" d="M332.09 177.74L325.24 173.8L325.24 174.61L332.09 178.58L332.09 177.74L332.09 177.74Z" />
					<path id="Path" class="shp20" d="M331.33 181.83L322.8 176.9L322.8 177.74L331.33 182.67L331.33 181.83L331.33 181.83Z" />
					<path id="Path" class="shp20" d="M326.69 180.68L326.69 181.49L331.33 184.18L331.33 183.34L326.69 180.68L326.69 180.68Z" />
					<path id="Path" class="shp20" d="M314.16 173.44L312.48 172.48L312.48 173.3L314.16 174.25L314.16 173.44L314.16 173.44Z" />
					<path id="Path" class="shp20" d="M317.29 175.25L317.29 176.07L325.99 181.07L325.99 180.26L317.29 175.25L317.29 175.25Z" />
					<path id="Path" class="shp20" d="M316.59 174.83L314.86 173.85L314.86 174.67L316.59 175.65L316.59 174.83L316.59 174.83Z" />
					<path id="Path" class="shp20" d="M324.37 180.85L314.86 175.37L314.86 176.18L324.37 181.66L324.37 180.85L324.37 180.85Z" />
					<path id="Path" class="shp20" d="M307.72 181.66L307.72 182.5L311.19 184.49L311.19 183.67L307.72 181.66L307.72 181.66Z" />
					<path id="Path" class="shp20" d="M307.72 183.17L307.72 183.98L311.19 186L311.19 185.16L307.72 183.17L307.72 183.17Z" />
					<path id="Path" class="shp20" d="M307.72 184.68L307.72 185.49L311.19 187.51L311.19 186.67L307.72 184.68L307.72 184.68Z" />
					<path id="Path" class="shp20" d="M333.88 202.11L333.88 201.27L312.48 188.93L312.48 189.77L333.88 202.11L333.88 202.11Z" />
					<path id="Path" class="shp20" d="M307.72 186.19L307.72 187L311.19 189.02L311.19 188.18L307.72 186.19L307.72 186.19Z" />
					<path id="Path" class="shp20" d="M307.72 187.7L307.72 188.51L311.19 190.5L311.19 189.69L307.72 187.7L307.72 187.7Z" />
					<path id="Path" class="shp20" d="M333.88 203.59L333.88 202.78L312.48 190.44L312.48 191.26L333.88 203.59L333.88 203.59Z" />
					<path id="Path" class="shp20" d="M307.72 192.21L307.72 193.05L311.19 195.03L311.19 194.22L307.72 192.21L307.72 192.21Z" />
					<path id="Path" class="shp20" d="M307.72 193.72L307.72 194.56L311.19 196.54L311.19 195.73L307.72 193.72L307.72 193.72Z" />
					<path id="Path" class="shp20" d="M332.06 209.27L332.06 210.08L333.88 211.15L333.88 210.31L332.06 209.27L332.06 209.27Z" />
					<path id="Path" class="shp20" d="M322.1 202.03L312.48 196.46L312.48 197.3L322.1 202.84L322.1 202.03L322.1 202.03Z" />
					<path id="Path" class="shp20" d="M318.16 187.67L312.48 184.4L312.48 185.24L318.16 188.51L318.16 187.67L318.16 187.67Z" />
					<path id="Path" class="shp20" d="M327.47 193.05L318.86 188.09L318.86 188.93L327.47 193.89L327.47 193.05L327.47 193.05Z" />
					<path id="Path" class="shp20" d="M322.44 191.68L316.4 188.18L316.4 189.02L322.44 192.49L322.44 191.68L322.44 191.68Z" />
					<path id="Path" class="shp20" d="M328.79 195.34L323.17 192.07L323.17 192.91L328.79 196.15L328.79 195.34L328.79 195.34Z" />
					<path id="Path" class="shp20" d="M329.52 195.73L329.52 196.57L333.88 199.09L333.88 198.25L329.52 195.73L329.52 195.73Z" />
					<path id="Path" class="shp20" d="M313.6 188.07L313.6 188.91L318.16 191.54L318.16 190.7L313.6 188.07L313.6 188.07Z" />
					<path id="Path" class="shp20" d="M332.09 198.72L318.86 191.12L318.86 191.93L332.09 199.56L332.09 198.72L332.09 198.72Z" />
					<path id="Path" class="shp20" d="M324.51 198.89L315.89 193.91L315.89 194.72L324.51 199.7L324.51 198.89L324.51 198.89Z" />
					<path id="Path" class="shp20" d="M332.09 203.26L325.24 199.31L325.24 200.12L332.09 204.1L332.09 203.26L332.09 203.26Z" />
					<path id="Path" class="shp20" d="M331.33 207.34L322.8 202.42L322.8 203.26L331.33 208.18L331.33 207.34L331.33 207.34Z" />
					<path id="Path" class="shp20" d="M326.69 206.17L326.69 207.01L331.33 209.66L331.33 208.85L326.69 206.17L326.69 206.17Z" />
					<path id="Path" class="shp20" d="M314.16 198.95L312.48 197.97L312.48 198.81L314.16 199.76L314.16 198.95L314.16 198.95Z" />
					<path id="Path" class="shp20" d="M317.29 200.74L317.29 201.58L325.99 206.59L325.99 205.77L317.29 200.74L317.29 200.74Z" />
					<path id="Path" class="shp20" d="M316.59 200.35L314.86 199.34L314.86 200.18L316.59 201.16L316.59 200.35L316.59 200.35Z" />
					<path id="Path" class="shp20" d="M324.37 206.33L314.86 200.85L314.86 201.69L324.37 207.17L324.37 206.33L324.37 206.33Z" />
					<path id="Path" class="shp21" d="M199.4 42.54L195.26 40.16C195.17 40.1 195.05 40.1 194.95 40.15C194.85 40.2 194.79 40.3 194.79 40.41L194.79 45.39C194.8 45.64 194.94 45.86 195.15 45.98L199.29 48.36C199.38 48.41 199.49 48.4 199.58 48.35C199.67 48.3 199.73 48.21 199.74 48.11L199.74 43.16C199.75 42.91 199.62 42.67 199.4 42.54Z" />
					<path id="Path" class="shp21" d="M199.4 49.98L195.26 47.58C195.16 47.53 195.05 47.54 194.95 47.59C194.86 47.65 194.8 47.75 194.79 47.86L194.79 52.81C194.78 53.06 194.93 53.29 195.15 53.39L199.29 55.8C199.39 55.85 199.5 55.84 199.59 55.79C199.69 55.73 199.74 55.63 199.74 55.52L199.74 50.57C199.75 50.32 199.62 50.09 199.4 49.98L199.4 49.98Z" />
					<path id="Path" class="shp21" d="M199.4 57.4L195.26 54.99C195.16 54.94 195.05 54.95 194.95 55C194.86 55.06 194.8 55.16 194.79 55.27L194.79 60.22C194.78 60.47 194.93 60.7 195.15 60.81L199.29 63.21C199.39 63.26 199.5 63.26 199.59 63.2C199.69 63.14 199.74 63.04 199.74 62.93L199.74 58.01C199.75 57.76 199.62 57.52 199.4 57.4Z" />
					<path id="Path" class="shp21" d="M199.4 64.81L195.26 62.43C195.17 62.37 195.05 62.36 194.95 62.42C194.85 62.47 194.79 62.57 194.79 62.68L194.79 67.66C194.8 67.9 194.94 68.12 195.15 68.22L199.29 70.63C199.38 70.67 199.49 70.67 199.58 70.62C199.67 70.57 199.73 70.48 199.74 70.38L199.74 65.42C199.75 65.17 199.62 64.94 199.4 64.81Z" />
					<path id="Path" class="shp21" d="M199.4 72.25L195.26 69.84C195.16 69.8 195.05 69.8 194.95 69.86C194.86 69.91 194.8 70.01 194.79 70.12L194.79 75.08C194.8 75.32 194.94 75.54 195.15 75.66L199.29 78.04C199.38 78.11 199.5 78.12 199.6 78.06C199.7 78.01 199.75 77.9 199.74 77.79L199.74 72.84C199.75 72.59 199.62 72.36 199.4 72.25Z" />
					<path id="Path" class="shp21" d="M199.4 79.66L195.12 77.2C195.02 77.15 194.91 77.16 194.81 77.22C194.72 77.27 194.66 77.37 194.65 77.48L194.65 82.43C194.64 82.68 194.79 82.91 195.01 83.02L199.15 85.43C199.25 85.48 199.36 85.47 199.45 85.41C199.55 85.36 199.6 85.25 199.6 85.15L199.6 80.28C199.64 80.05 199.57 79.82 199.4 79.66Z" />
					<path id="Path" class="shp21" d="M199.4 87.08L195.26 84.7C195.17 84.64 195.05 84.63 194.95 84.68C194.85 84.74 194.79 84.84 194.79 84.95L194.79 89.9C194.78 90.15 194.93 90.38 195.15 90.49L199.29 92.9C199.39 92.94 199.5 92.94 199.59 92.88C199.69 92.82 199.74 92.72 199.74 92.62L199.74 87.69C199.75 87.44 199.62 87.21 199.4 87.08Z" />
					<path id="Path" class="shp21" d="M199.4 94.52L195.26 92.11C195.17 92.05 195.05 92.05 194.95 92.1C194.85 92.15 194.79 92.25 194.79 92.36L194.79 97.34C194.8 97.59 194.94 97.81 195.15 97.93L199.29 100.31C199.38 100.38 199.5 100.38 199.6 100.33C199.7 100.28 199.75 100.17 199.74 100.06L199.74 95.11C199.75 94.86 199.62 94.63 199.4 94.52L199.4 94.52Z" />
					<path id="Path" class="shp21" d="M199.4 101.93L195.12 99.58C195.02 99.54 194.91 99.54 194.81 99.6C194.72 99.65 194.66 99.75 194.65 99.86L194.65 104.81C194.64 105.06 194.79 105.29 195.01 105.4L199.15 107.81C199.25 107.86 199.36 107.85 199.45 107.79C199.55 107.74 199.6 107.63 199.6 107.53L199.6 102.57C199.65 102.34 199.58 102.1 199.4 101.93L199.4 101.93Z" />
					<path id="Path" class="shp21" d="M199.4 109.34L195.26 106.97C195.17 106.91 195.05 106.9 194.95 106.95C194.85 107 194.79 107.11 194.79 107.22L194.79 112.17C194.78 112.42 194.93 112.65 195.15 112.76L199.29 115.16C199.39 115.21 199.5 115.21 199.59 115.15C199.69 115.09 199.74 114.99 199.74 114.88L199.74 109.96C199.75 109.71 199.62 109.47 199.4 109.34L199.4 109.34Z" />
					<path id="Path" class="shp21" d="M199.4 116.76L195.26 114.38C195.17 114.32 195.05 114.31 194.95 114.37C194.85 114.42 194.79 114.52 194.79 114.63L194.79 119.61C194.8 119.86 194.94 120.08 195.15 120.2L199.29 122.58C199.38 122.64 199.5 122.65 199.6 122.6C199.7 122.54 199.75 122.44 199.74 122.33L199.74 117.37C199.75 117.12 199.62 116.89 199.4 116.76Z" />
					<path id="Path" class="shp21" d="M199.4 124.2L195.26 121.79C195.16 121.75 195.05 121.75 194.95 121.81C194.86 121.86 194.8 121.96 194.79 122.07L194.79 127.02C194.78 127.27 194.93 127.5 195.15 127.61L199.29 130.02C199.39 130.07 199.5 130.06 199.59 130.01C199.69 129.95 199.74 129.85 199.74 129.74L199.74 124.76C199.74 124.52 199.61 124.31 199.4 124.2Z" />
					<path id="Path" class="shp8" d="M282.18 265.78C276.97 263.99 271.21 264.86 266.77 268.13C258.38 273.73 252.78 281.39 256.19 284.24C259.61 287.1 266.18 290.12 270.46 288.58C274.74 287.04 295.89 274.62 282.18 265.78Z" />
					<path id="Path" class="shp22" d="M458.17 233.13L392.26 270.48L350.25 246.17L416.15 208.85L458.17 233.13L458.17 233.13Z" />
					<path id="Path" class="shp23" d="M405.16 269.59L405.16 271.04L471.07 233.3L471.07 232.24L405.16 269.59L405.16 269.59Z" />
					<path id="Path" class="shp24" d="M471.07 232.24L405.16 269.59L363.17 245.28L429.05 207.96L471.07 232.24L471.07 232.24Z" />
					<path id="Path" class="shp25" d="M405.16 269.59L405.16 271.04L363.17 246.73L363.17 245.28L405.16 269.59L405.16 269.59Z" />
					<path id="Path" class="shp26" d="M428.6 211.93L453.98 226.56L452.89 227.2L427.48 212.57L428.6 211.93L428.6 211.93Z" />
					<path id="Path" class="shp26" d="M425.97 213.44L451.35 228.07L450.23 228.69L424.85 214.06L425.97 213.44L425.97 213.44Z" />
					<path id="Path" class="shp26" d="M419.85 216.91L454.79 237.08L453.67 237.69L418.73 217.52L419.85 216.91L419.85 216.91Z" />
					<path id="Path" class="shp26" d="M417.41 218.28L452.35 238.45L451.26 239.07L416.29 218.89L417.41 218.28L417.41 218.28Z" />
					<path id="Path" class="shp26" d="M415.01 219.65L449.95 239.82L448.83 240.44L413.89 220.27L415.01 219.65L415.01 219.65Z" />
					<path id="Path" class="shp26" d="M412.57 221.02L447.51 241.19L446.42 241.81L411.48 221.64L412.57 221.02L412.57 221.02Z" />
					<path id="Path" class="shp26" d="M410.17 222.39L445.11 242.56L443.99 243.2L409.05 223.04L410.17 222.39L410.17 222.39Z" />
					<path id="Path" class="shp26" d="M407.73 223.76L442.7 243.93L441.58 244.58L406.64 224.41L407.73 223.76L407.73 223.76Z" />
					<path id="Path" class="shp26" d="M405.33 225.13L440.27 245.3L439.15 245.95L404.21 225.78L405.33 225.13L405.33 225.13Z" />
					<path id="Path" class="shp26" d="M402.89 226.5L437.86 246.67L436.74 247.32L401.8 227.15L402.89 226.5L402.89 226.5Z" />
					<path id="Path" class="shp26" d="M400.49 227.87L435.43 248.05L434.31 248.69L399.37 228.52L400.49 227.87L400.49 227.87Z" />
					<path id="Path" class="shp26" d="M398.05 229.25L433.02 249.42L431.9 250.06L396.96 229.89L398.05 229.25L398.05 229.25Z" />
					<path id="Path" class="shp26" d="M395.65 230.62L430.59 250.81L429.47 251.43L394.53 231.26L395.65 230.62L395.65 230.62Z" />
					<path id="Path" class="shp26" d="M393.24 232.02L428.18 252.16L427.06 252.8L392.12 232.63L393.24 232.02L393.24 232.02Z" />
					<path id="Path" class="shp26" d="M390.81 233.39L425.75 253.56L424.63 254.17L389.69 234L390.81 233.39L390.81 233.39Z" />
					<path id="Path" class="shp26" d="M388.4 234.76L423.34 254.93L422.22 255.54L387.28 235.37L388.4 234.76L388.4 234.76Z" />
					<path id="Path" class="shp26" d="M385.97 236.13L420.91 256.3L419.82 256.91L384.85 236.74L385.97 236.13L385.97 236.13Z" />
					<path id="Path" class="shp5" d="M357.49 254.87L351.34 254.87L351.34 261.53L357.49 261.53C359.78 261.53 361.64 263.38 361.66 265.67L361.66 276.47C361.66 278.77 359.79 280.64 357.49 280.64L348.45 280.64L348.45 287.29L357.49 287.29C363.46 287.28 368.3 282.44 368.32 276.47L368.32 265.67C368.3 259.7 363.46 254.87 357.49 254.87L357.49 254.87Z" />
					<path id="Path" class="shp3" d="M355.2 251.21L355.2 288.64C355.2 294.43 346.52 299.13 335.87 299.13C325.21 299.13 316.54 294.43 316.54 288.64L316.54 251.21L355.2 251.21Z" />
					<path id="Path" class="shp4" d="M316.54 251.21C316.54 257 325.18 261.7 335.87 261.7C346.55 261.7 355.2 257 355.2 251.21C355.2 245.42 346.52 240.69 335.87 240.69C325.21 240.69 316.54 245.39 316.54 251.21Z" />
					<path id="Path" class="shp5" d="M320.4 251.07C320.4 255.6 327.31 259.29 335.87 259.29C344.43 259.29 351.34 255.6 351.34 251.07C351.34 246.53 344.4 242.84 335.87 242.84C327.33 242.84 320.4 246.53 320.4 251.07Z" />
					<path id="Path" class="shp2" d="M335.87 248.21C329.1 248.21 323.36 250.53 321.26 253.81C323.36 257.02 329.1 259.4 335.87 259.4C342.64 259.4 348.37 257.08 350.47 253.81C348.37 250.65 342.64 248.21 335.87 248.21Z" />
					<path id="Path" class="shp5" d="M343.17 260.91L343.17 298.37C346.49 297.72 349.61 296.27 352.26 294.15L352.26 256.72C349.62 258.84 346.5 260.28 343.17 260.91Z" />
				</g>
				<g id="Group 7">
					<g id="Group" style="opacity: 0.4">
						<path id="Path" class="shp27" d="M388.12 63.08L388.12 65.83L399.69 72.51L399.69 69.76L388.12 63.08L388.12 63.08Z" />
						<path id="Path" class="shp27" d="M388.12 68.12L388.12 70.86L399.69 77.52L399.69 74.77L388.12 68.12L388.12 68.12Z" />
						<path id="Path" class="shp27" d="M388.12 73.13L388.12 75.88L399.69 82.56L399.69 79.81L388.12 73.13L388.12 73.13Z" />
						<path id="Path" class="shp28" d="M475.34 131.2L475.34 128.46L404.03 87.34L404.03 90.09L475.34 131.2L475.34 131.2Z" />
						<path id="Path" class="shp27" d="M388.12 78.16L388.12 80.91L399.69 87.57L399.69 84.82L388.12 78.16L388.12 78.16Z" />
						<path id="Path" class="shp27" d="M388.12 83.17L388.12 85.95L399.69 92.61L399.69 89.86L388.12 83.17L388.12 83.17Z" />
						<path id="Path" class="shp28" d="M475.34 136.24L475.34 133.49L404.03 92.35L404.03 95.1L475.34 136.24L475.34 136.24Z" />
						<path id="Path" class="shp29" d="M388.12 98.26L388.12 101.01L399.69 107.69L399.69 104.94L388.12 98.26L388.12 98.26Z" />
						<path id="Path" class="shp29" d="M388.12 103.3L388.12 106.05L399.69 112.7L399.69 109.95L388.12 103.3L388.12 103.3Z" />
						<path id="Path" class="shp29" d="M388.12 123.39L388.12 126.14L399.69 132.8L399.69 130.05L388.12 123.39L388.12 123.39Z" />
						<path id="Path" class="shp29" d="M388.12 128.4L388.12 131.15L399.69 137.84L399.69 135.09L388.12 128.4L388.12 128.4Z" />
						<path id="Path" class="shp29" d="M449 163.53L404.03 137.58L404.03 140.33L449 166.28L449 163.53L449 163.53Z" />
						<path id="Path" class="shp28" d="M451.39 164.9L451.39 167.65L475.34 181.47L475.34 178.72L451.39 164.9L451.39 164.9Z" />
						<path id="Path" class="shp29" d="M426.62 145.6L404.03 132.57L404.03 135.32L426.62 148.35L426.62 145.6L426.62 145.6Z" />
						<path id="Path" class="shp28" d="M428.98 146.96L428.98 149.71L475.34 176.43L475.34 173.68L428.98 146.96L428.98 146.96Z" />
						<path id="Path" class="shp28" d="M469.25 155.1L469.25 157.85L475.34 161.37L475.34 158.62L469.25 155.1L469.25 155.1Z" />
						<path id="Path" class="shp29" d="M436.05 130.95L404.03 112.44L404.03 115.19L436.05 133.7L436.05 130.95L436.05 130.95Z" />
						<path id="Path" class="shp27" d="M422.94 83.15L404.03 72.25L404.03 75L422.94 85.9L422.94 83.15L422.94 83.15Z" />
						<path id="Path" class="shp29" d="M453.94 101.03L425.31 84.54L425.31 87.29L453.94 103.78L453.94 101.03L453.94 101.03Z" />
						<path id="Path" class="shp29" d="M437.26 96.43L417.09 84.82L417.09 87.57L437.26 99.18L437.26 96.43L437.26 96.43Z" />
						<path id="Path" class="shp29" d="M458.41 108.64L439.62 97.82L439.62 100.57L458.41 111.39L458.41 108.64L458.41 108.64Z" />
						<path id="Path" class="shp28" d="M460.77 110L460.77 112.75L475.34 121.16L475.34 118.41L460.77 110L460.77 110Z" />
						<path id="Path" class="shp27" d="M407.76 84.46L407.76 87.21L422.94 95.97L422.94 93.22L407.76 84.46L407.76 84.46Z" />
						<path id="Path" class="shp29" d="M469.41 120L425.31 94.58L425.31 97.33L469.41 122.78L469.41 120L469.41 120Z" />
						<path id="Path" class="shp29" d="M444.15 120.54L415.34 103.91L415.34 106.66L444.15 123.29L444.15 120.54L444.15 120.54Z" />
						<path id="Path" class="shp28" d="M469.41 135.09L446.54 121.9L446.54 124.65L469.41 137.84L469.41 135.09L469.41 135.09Z" />
						<path id="Path" class="shp28" d="M466.86 148.71L438.44 132.31L438.44 135.06L466.86 151.46L466.86 148.71L466.86 148.71Z" />
						<path id="Path" class="shp28" d="M451.39 144.8L451.39 147.55L466.86 156.49L466.86 153.74L451.39 144.8L451.39 144.8Z" />
						<path id="Path" class="shp29" d="M409.61 120.69L404.03 117.48L404.03 120.23L409.61 123.44L409.61 120.69L409.61 120.69Z" />
						<path id="Path" class="shp29" d="M420.04 126.73L420.04 129.48L449 146.19L449 143.44L420.04 126.73L420.04 126.73Z" />
						<path id="Path" class="shp29" d="M417.68 125.35L411.97 122.06L411.97 124.81L417.68 128.1L417.68 125.35L417.68 125.35Z" />
						<path id="Path" class="shp29" d="M443.66 145.36L411.97 127.09L411.97 129.84L443.66 148.11L443.66 145.36L443.66 145.36Z" />
					</g>
					<g id="Group 42 Copy">
						<path id="Path" class="shp30" d="M527.09 81.42L480.22 54.37C478.75 53.53 476.93 53.6 475.53 54.55L475.53 54.55L465.26 60.51L470.03 67L471.83 69.03L471.83 115.49C471.82 118.25 473.29 120.8 475.68 122.18L510.87 142.46L511.23 144.41L518.39 154.45L529.4 147.98L529.4 147.98L529.4 147.98L529.4 147.98C530.46 147.34 531.1 146.19 531.1 144.95L531.1 88.48C531.14 85.58 529.61 82.88 527.09 81.42L527.09 81.42Z" />
						<path id="Path" class="shp28" d="M516.13 87.92L468.7 60.51C467.63 59.92 466.33 59.94 465.28 60.55C464.23 61.17 463.58 62.29 463.56 63.51L463.56 120.29C463.56 123.05 465.04 125.61 467.44 126.98L514.8 154.4C515.9 155.04 517.26 155.05 518.36 154.41C519.47 153.78 520.15 152.59 520.14 151.32L520.14 94.85C520.13 91.99 518.61 89.35 516.13 87.92L516.13 87.92Z" />
						<path id="Shape" fill-rule="evenodd" class="shp4" d="M504.79 130.91L499.32 127.68L495.98 118L482.28 110.1L479.22 115.97L473.52 112.79L488.77 87.64L504.79 130.91ZM488.74 98.55L484.2 106.71L493.9 112.3L488.77 98.55L488.74 98.55Z" />
						<path id="Path" class="shp28" d="M520.14 151.32L520.14 94.85C520.11 93.92 519.93 93 519.6 92.13L530.58 85.81C530.9 86.63 531.08 87.5 531.1 88.38L531.1 144.85C531.1 146.09 530.46 147.24 529.4 147.88L529.4 147.88L529.4 147.88L529.4 147.88L518.49 154.29C519.51 153.65 520.13 152.52 520.14 151.32Z" />
					</g>
					<g id="Group 42 Copy 2">
						<path id="Path" class="shp31" d="M424.35 28L377.48 0.95C376.01 0.11 374.19 0.18 372.79 1.13L372.79 1.13L362.52 7.08L367.29 13.58L369.09 15.6L369.09 62.06C369.08 64.82 370.55 67.38 372.94 68.76L408.13 89.04L408.49 90.99L415.65 101.03L426.66 94.56L426.66 94.56L426.66 94.56L426.66 94.56C427.72 93.92 428.37 92.77 428.36 91.53L428.36 35.06C428.4 32.15 426.87 29.45 424.35 28L424.35 28Z" />
						<path id="Path" class="shp32" d="M413.39 34.49L365.96 7.08C364.89 6.5 363.59 6.51 362.54 7.13C361.49 7.74 360.84 8.87 360.83 10.09L360.83 66.86C360.82 69.63 362.3 72.19 364.7 73.56L412.06 100.97C413.16 101.62 414.52 101.63 415.63 100.99C416.73 100.35 417.41 99.17 417.4 97.89L417.4 41.43C417.4 38.57 415.87 35.92 413.39 34.49L413.39 34.49Z" />
						<g id="usa-mapРесурс 1">
							<path id="Path" class="shp4" d="M389.15 36.19L371.4 32.27L374.12 57.34L389.15 74.36L404.43 74.72L407.38 52.92L389.15 36.19L389.15 36.19Z" />
							<path id="Shape" fill-rule="evenodd" class="shp32" d="M402.03 72.66L397.61 70.02L394.87 62.15L389.1 58.81L389.08 58.81L383.78 55.75L381.32 60.55L376.69 57.96L389.08 37.58L389.08 37.53L389.09 37.56L389.09 37.55L389.1 37.6L402.03 72.66ZM385.45 53.04L389.1 55.15L393.32 57.58L389.14 46.44L385.45 53.04Z" />
						</g>
						<path id="Path" class="shp29" d="M417.4 97.89L417.4 41.43C417.38 40.49 417.19 39.57 416.86 38.7L427.84 32.39C428.17 33.21 428.34 34.08 428.36 34.96L428.36 91.43C428.37 92.66 427.72 93.81 426.66 94.45L426.66 94.45L426.66 94.45L426.66 94.45L415.75 100.87C416.77 100.22 417.39 99.1 417.4 97.89Z" />
					</g>
				</g>
			</g>
		</g>
	</g>
</svg>